<svg id="Lag_1" data-name="Lag 1" xmlns="http://www.w3.org/2000/svg" viewBox="0 0 329.11 416.34"><defs><style>.cls-1,.cls-8{fill:#f4d7d7;stroke:#fff;}.cls-1,.cls-6,.cls-8{stroke-miterlimit:10;}.cls-1{stroke-width:6px;}.cls-2{fill:#e8ccb7;}.cls-3{fill:#00ec1c;}.cls-4{fill:#705643;}.cls-5{fill:#7f000a;}.cls-6{fill:#f7f9f7;stroke:#000;}.cls-7{fill:#fff;}.cls-9{font-size:14px;font-family:DINAlternate-Bold, DIN Alternate;font-weight:700;}</style></defs><title>Cool girl tegning</title><path class="cls-1" d="M0,0V397.69L300,401V0Z" transform="translate(3 3)"/><path class="cls-2" d="M72.55,131.66Q73.12,123.11,74,115c35.24-28.23,50.44-42.83,57.33-51A80.58,80.58,0,0,1,163.5,40.7L176.24,35,183,50.26l19.46,34,8.14,10.27q.52,6.36,1.06,12.74a26.41,26.41,0,0,1,8.14,13.8c1,4.85.27,9.3-.35,13.09a53.82,53.82,0,0,1-2.12,8.5c-3.7,11.07-2.27,26.34-2.48,39.63A167.32,167.32,0,0,1,211,215.13q.2,10.81.4,21.63l-14.51,11-.35,11.68.35,12-7.3,5.89-3.67,3-17.7,8.49-36.09,2.48-18.05-2-1.42-.16q-2.3-8.49-4.6-17l-21.23-13.8q-4.61-17-9.2-34-3-29.19-6-58.39C71.46,155.13,71.75,143.67,72.55,131.66Z" transform="translate(3 3)"/><path d="M92.09,205.91c-4.36-3.9-9.1-7.6-13.17-11.79-2.41-2.49-2.07-6-2.25-9.23-.17-3-.33-6-.5-9a.5.5,0,0,0-1,.07l.58,10.39c.14,2.43-.08,5.14,1.39,7.22,1.62,2.3,4.24,4.09,6.32,6l8,7.11A.5.5,0,0,0,92.09,205.91Z" transform="translate(3 3)"/><path d="M210.44,190a80.27,80.27,0,0,1-.1-11.29c0-.64-.94-.83-1-.19-.16,2.74-.22,5.48-.12,8.22.11,2.9,1.56,7.62-.13,10.14-1.57,2.32-4.09,4.38-6,6.42q-3.31,3.58-6.65,7.15c-.44.47.31,1.13.75.66l7-7.5c1.93-2.07,4.61-4.22,6.11-6.61C211.57,195,210.61,192.18,210.44,190Z" transform="translate(3 3)"/><path d="M211.44,227.72q0-5.59-.07-11.18a1.1,1.1,0,0,0-.09-.29c-.38-.89-1.54-1.57-2-1.37-.78.35.27,3.5,1.14,10.12.42,3.25.56,5.47-.53,7.76-.52,1.09-1.14.29-1.53.72a89.88,89.88,0,0,1-14,12.42q-14.08,10.56-28.8,20.26c-4.73,3.12-9.49,6.46-14.82,8.5a37.86,37.86,0,0,1-17.08,2.14c-14.74-1.38-25.07-8.58-30.58-12.69-8.48-6.34-12.73-9.5-14.7-15.11,0,0-4.61-13.09-7.08-14.43-.19-.1-.81-.45-1-.22a.48.48,0,0,0,0,.3c.63,5.21,1.34,10.77,4.5,15.14,3.4,4.7,8.8,8.37,13.34,11.88,9.1,7,19.2,13.19,30.62,15.43a43.16,43.16,0,0,0,16.53.16c5.92-1.17,11.11-4,16.14-7.21,10.92-7,21.56-14.44,32-22.18,3.06-2.27,5.24-5.61,8.25-7.94,2.34-1.82,4.65-2.7,6.67-4.9A10.4,10.4,0,0,0,211.44,227.72Z" transform="translate(3 3)"/><path class="cls-3" d="M86.72,100.46" transform="translate(3 3)"/><path id="øjenbryn" class="cls-4" d="M130.35,131.18a5.62,5.62,0,0,1-2.54-.84,5.41,5.41,0,0,1-1.76-1.8c-1.51-.57-3.12-1.13-4.83-1.65a79.77,79.77,0,0,0-8.59-2.08l-2.8-1.6L100,117.58a25.66,25.66,0,0,0-5.22.3c-.16,0-.55.09-1.6.3-2,.41-3.65.79-4.74,1.06a33.06,33.06,0,0,0-3.79,1.19c-.7.27-1.35.55-2,.84l-4.39.6c3.34-5.44,5.33-6.47,6.56-6.23a4,4,0,0,0,2.07.25c1-.24,1.07-.91,2.49-1.79a5.56,5.56,0,0,1,2.52-.9c.89-.07,1,.19,2.12.21a9.72,9.72,0,0,0,2.59-.42c1.79-.44,2.24-.75,3.25-.95a15.52,15.52,0,0,1,8.33.39c1.53.54,1.26.77,5.11,2.6s4.35,1.72,6.19,3c2.09,1.42,1.94,1.92,3.73,2.8a38.1,38.1,0,0,0,4.5,1.66c1.66.54,2.45.47,2.76.85.09.11,0,.29.16.49.26.4.76.43.93.51C132,124.53,132,126,130.35,131.18Z" transform="translate(3 3)"/><path class="cls-4" d="M144.64,134.92" transform="translate(3 3)"/><path class="cls-4" d="M175.26,148.21" transform="translate(3 3)"/><path d="M130.9,187.17a.76.76,0,0,1,.25-.35.84.84,0,0,1,.61-.1,1.7,1.7,0,0,1,.9.5c.53.56.43,2.15-.35,4a4.67,4.67,0,0,0-1.41,1.61,4.43,4.43,0,0,0-.45,1.31l-.81-.11a11.86,11.86,0,0,0,.66-2.11,10.6,10.6,0,0,0,.3-2.36A9.25,9.25,0,0,1,130.9,187.17Z" transform="translate(3 3)"/><path d="M130.5,197.23v3.52l2.21.26,1-1.41-.15-1.51Z" transform="translate(3 3)"/><path d="M140.91,196.93l0,.09h0l.44,2.78.85.9,1.21-1.15h0l.71-1.33-1.27-1.79" transform="translate(3 3)"/><path class="cls-5" d="M170.25,232.66c0,2.54-2.63,4.43-6.31,7.08a28.11,28.11,0,0,1-12.26,5.09c-5.09,1-9.17,2.39-13.13,2.21-4.33-.2-6.84-1.09-12.81-2.16-6.9-1.24-10-2.85-11.77-4.24-.38-.3-.77-.68-1.56-1.42-4.14-3.89-6.21-5.83-6.2-7,0-3.55,8.37-6.81,11.54-9.18a15.45,15.45,0,0,1,1.32-.92c1.1-.7,1.79-.93,5.39-3.37,3.32-2.25,4.19-3,5.81-3.25,1.2-.16,3.73-.11,7.17,2.93,1.54-1.27,4.69-3.47,8.2-2.85A8.55,8.55,0,0,1,150,218C159,226.24,170.28,227.35,170.25,232.66Z" transform="translate(3 3)"/><path d="M139.85,237.29" transform="translate(3 3)"/><path d="M137.75,234.34" transform="translate(3 3)"/><path class="cls-6" d="M146.83,232.38" transform="translate(3 3)"/><path class="cls-4" d="M176.24,35,74,115c-.89,21-.72,38.54-.33,51.58,1.18,39.8,5,54.46,7.11,61.69a161.77,161.77,0,0,0,11.71,29l10.68,6.83,5,4.51,1.2,8.51a26.91,26.91,0,0,0-8.61,5.06s-1,.88-1.92,1.87c-4.55,4.9-6.63,12.88-7.23,15.42l-42,1Q45,280.67,40.41,260.83l-1-13.89a31.17,31.17,0,0,1-5.09-20.68,31.53,31.53,0,0,1,12.21-21q-3.57-9-7.12-18a106.68,106.68,0,0,1,.68-28.13c2-12.47,5.12-17.71,7.11-30.17a109.45,109.45,0,0,0,.68-29.15L57,91,59.4,66.93l2.71-9.15A45.23,45.23,0,0,1,93,33.37c1.1-.46,2.75-1.16,4.74-2,5.82-2.53,8.11-3.69,9.83-4.41a34.27,34.27,0,0,1,14.58-2.37,121.79,121.79,0,0,1,16.27-3.73c8.1-1.28,7.49-.34,22-1.69,10.28-1,14.43-1.79,21.35-.68,1.35.21,1.09.23,7.12,1.35,10.31,1.93,11.54,2,14.24,2.72a47.73,47.73,0,0,1,12.54,5.76c12.15,7.23,19.38,16.57,33.56,34.91a50.49,50.49,0,0,1,8.48,14.58A40.24,40.24,0,0,1,260.42,91c.18,7.86-2.3,10.79-1.36,19.32a49.82,49.82,0,0,0,1.36,6.78c2.83,12.15,3,16.72,4.74,25.43,2.74,13.47,4.64,13.61,7.12,24.74,2.93,13.1,2.58,23.09,2,38.31a231.51,231.51,0,0,1-4.07,35.93c-4.23,21.67-6.95,18.33-7.8,30.51-.18,2.6-.36,9.93-3.39,10.85-1,.3-2-.21-3-.78-4.16-2.24-4.36-6-7.82-9.39-1.62-1.6-2.74-2.19-6.44-3.73-9.62-4-9.11-6.11-19.32-10.51-8.13-3.51-12.6-5.36-16.61-3.39-4.31,2.12-5,7.11-6.78,6.78-2.07-.37-4.17-7.51-2.22-14.12,2.85-9.65,12-10.84,14.6-20a20.9,20.9,0,0,0-.07-11.18,396.49,396.49,0,0,0,3.28-43.16c.19-8.86-.09-17.89-.33-35.94-.16-11.77-.45-21.41-.68-27.79q-9.16-17.73-18.31-35.94Q185.55,54.23,176.24,35Z" transform="translate(3 3)"/><path id="øjenbryn-2" data-name="øjenbryn" class="cls-4" d="M160,135.16a4.84,4.84,0,0,0,2.67-.54,5.81,5.81,0,0,0,2-1.8c1.6-.41,3.28-.78,5.06-1.09a65.18,65.18,0,0,1,8.87-1l3-1.39,10.69-4.89a22.6,22.6,0,0,1,5.14,1.25c.16.06.54.2,1.55.63,1.95.82,3.51,1.55,4.55,2a29.78,29.78,0,0,1,3.59,2.05c.65.43,1.25.87,1.82,1.31l4.27,1.45c-2.47-6.93-4.29-8.47-5.56-8.4a3.45,3.45,0,0,1-2.1-.06c-1-.45-.92-1.26-2.19-2.53a5.34,5.34,0,0,0-2.37-1.48c-.88-.23-1,0-2.14-.13a8.31,8.31,0,0,1-2.52-.93c-1.7-.82-2.1-1.26-3.08-1.67a13.39,13.39,0,0,0-8.35-1c-1.62.37-1.38.68-5.5,2.16s-4.59,1.26-6.62,2.41c-2.3,1.31-2.23,1.91-4.15,2.63a31.15,31.15,0,0,1-4.73,1.17c-1.75.35-2.52.13-2.89.52-.1.11-.07.34-.23.55a1.47,1.47,0,0,1-1,.43C159.41,127.1,159.18,128.8,160,135.16Z" transform="translate(3 3)"/><path d="M144.64,134.92" transform="translate(3 3)"/><path class="cls-7" d="M107.72,245.32" transform="translate(3 3)"/><path d="M224.48,148.61a205.21,205.21,0,0,1-20.84,20.11,203.7,203.7,0,0,1-25.92,18.45l-24.95-20.55-3.59-6.83-14.37-.35c-.26,1.93-.53,3.85-.8,5.78L96.3,185.38,56.19,145.87l58.6-1.44,16.63,12.21h21.35l8.84-9.54Z" transform="translate(3 3)"/><path class="cls-4" d="M310,270.48" transform="translate(3 3)"/><path class="cls-2" d="M112.83,294.54l-.22-5.41,39.5,1.36" transform="translate(3 3)"/><path class="cls-7" d="M112.83,290.65v4.06l6.23,3.11A66.93,66.93,0,0,1,130,299.7a63.69,63.69,0,0,1,10,3.43,74.85,74.85,0,0,1,8.73,4.67c3,1.81,5.53,3.48,7.35,4.75l4.37-4.38c5.4-3.56,9.81-6.35,12.77-8.21,8.72-5.46,9.58-5.69,13.13-8.39s5-4.24,10.39-8.2l5.48-4-5.47-6.48A71.92,71.92,0,0,1,181,282.46a75.87,75.87,0,0,1-16.59,5.1C144.5,291.55,119.47,290.88,112.83,290.65Z" transform="translate(3 3)"/><path class="cls-4" d="M108.75,282.84" transform="translate(3 3)"/><path d="M141.12,326.17" transform="translate(3 3)"/><path class="cls-4" d="M292,114.51" transform="translate(3 3)"/><path class="cls-7" d="M325.59,313.19c-.64,0-.56,1,.08,1S326.23,313.19,325.59,313.19Z" transform="translate(3 3)"/><path d="M284.24,286c-6.18-6.26-11.78-8.32-15.93-9-7.14-1.12-12.44,1.53-17.09-2.24-2.3-1.86-1.74-3.1-5-6.66-2.27-2.5-4.28-3.8-9.42-6.9-9.37-5.66-14.12-8.49-17.18-9.57a31.21,31.21,0,0,0-12.6-2c-5.74.34-7.72,2.23-8.19,2.71-1.79,1.8-2.17,4.12-2.52,6.25-.69,4.24.25,6.83.38,8.93.34,5.35-4.4,10-10.44,15a266.61,266.61,0,0,1-33.05,23.16,64.49,64.49,0,0,0-22.86-11.94c-8.16-2.28-13.32-1.8-17.12-6.33-5.08-6-1.43-13.46-5.24-15.27-4.08-1.95-12.53,4.52-16.44,12.15-2.55,5-.89,5.94-2.77,8.32-6.23,7.95-24.41-4.48-44.61,3.29-6.07,2.33-9,5.2-10.46,7-5.17,6.18-5.36,13.78-5.47,17.93-.37,13.43-1,31.29-1.38,53l257.29-1.11Q284.21,329.34,284.24,286Z" transform="translate(3 3)"/><path class="cls-4" d="M276.4,276.49" transform="translate(3 3)"/><path d="M268.59,155.16" transform="translate(3 3)"/><path d="M279.29,180.79" transform="translate(3 3)"/><path d="M309.47,171.74" transform="translate(3 3)"/><path d="M235.54,167.21" transform="translate(3 3)"/><path d="M257.16,156.15" transform="translate(3 3)"/><path d="M352.44,379.88" transform="translate(3 3)"/><path d="M342,381" transform="translate(3 3)"/><path class="cls-8" d="M354.1,373.82" transform="translate(3 3)"/><path class="cls-7" d="M207.68,344.23a12.94,12.94,0,0,0,1.24-8.27c-.92-5.54-4.7-9.11-8.27-13.08a14.34,14.34,0,0,1-3-15.49c2.63-7.21-8.87-10.32-11.48-3.16a25.74,25.74,0,0,0-.39,16.65c1.92,5.9,6.05,9.16,9.68,13.86,2,2.66,1.89,3.76,0,6.24a17.68,17.68,0,0,0-3.92,7.81c-1.1,6,2.18,11.17,2.65,17,.61,7.59,12.52,7.65,11.9,0a41,41,0,0,0-1.42-7.84c-.7-2.51-2.12-5.46-1-8C204.52,347.84,206.62,346.27,207.68,344.23Z" transform="translate(3 3)"/><path class="cls-7" d="M133.56,355.17c-1.16-2.35-3.36-4.34-3.27-7.09.07-2.25,1.56-4.88,2.36-6.92,1.84-4.66,3-9.58,1.13-14.44-1-2.66-3.11-4.69-4.13-7.32-1.17-3-.55-5.91.65-8.77s-1.35-6.52-4.16-7.32c-3.42-1-6.08,1.21-7.32,4.16a21.63,21.63,0,0,0-.65,15.1,33.68,33.68,0,0,0,3.59,6.76c1.38,2.3,1.19,3.63.35,6.15-1.43,4.32-3.57,8.24-3.72,12.9a15,15,0,0,0,1.45,6.81c.19.41,3.37,5.86,3.49,5.75-5.49,5.36,2.93,13.78,8.42,8.42C135.69,365.51,135.92,360,133.56,355.17Z" transform="translate(3 3)"/><text class="cls-9" transform="translate(115.61 395.7)"><tspan xml:space="preserve">B E   C O O L  . . .</tspan></text><path class="cls-5" d="M269.35,245.87" transform="translate(3 3)"/></svg>